<?xml version="1.0" encoding="utf-8"?>
<!-- Generator: Adobe Illustrator 15.0.0, SVG Export Plug-In . SVG Version: 6.00 Build 0)  -->
<!DOCTYPE svg PUBLIC "-//W3C//DTD SVG 1.1//EN" "http://www.w3.org/Graphics/SVG/1.1/DTD/svg11.dtd">
<svg version="1.1" id="Layer_1" xmlns="http://www.w3.org/2000/svg" xmlns:xlink="http://www.w3.org/1999/xlink" x="0px" y="0px"
	 width="1224px" height="648px" viewBox="0 0 1224 648" enable-background="new 0 0 1224 648" xml:space="preserve">
<g>
	<path opacity="0.3" fill="#FFFFFF" d="M630.822,358.272c-1.849,1.372-3.688,0.599-5.287-1.2c-0.043-0.049-0.089-0.084-0.134-0.125
		l-0.304-1.045l1.189,4.098h4.742l-0.538-4.506L630.822,358.272z"/>
	<path opacity="0.3" fill="#FFFFFF" d="M625.535,357.072c1.6,1.799,3.438,2.572,5.287,1.2l-0.331-2.778l-5.394,0.408l0.304,1.045
		C625.446,356.988,625.492,357.023,625.535,357.072z"/>
	<path opacity="0.3" fill="#FFFFFF" d="M625.535,357.072c1.6,1.799,3.438,2.572,5.287,1.2l-0.331-2.778l-5.394,0.408l0.304,1.045
		C625.446,356.988,625.492,357.023,625.535,357.072z"/>
	<polygon opacity="0.3" fill="#FFFFFF" points="594.645,360 597.897,360 594.95,358.796 	"/>
	<polygon opacity="0.3" fill="#FFFFFF" points="594.645,360 597.897,360 594.95,358.796 	"/>
	<polygon opacity="0.3" fill="#FFFFFF" points="581.832,358.275 581.465,360 586.72,360 586.845,359.535 	"/>
	<polygon opacity="0.3" fill="#FFFFFF" points="581.832,358.275 581.465,360 586.72,360 586.845,359.535 	"/>
	<polygon opacity="0.2" fill="#FFFFFF" points="633.823,358.766 634.058,360 639.542,360 639.895,358.137 	"/>
	<polygon opacity="0.8" fill="#FFFFFF" points="618.203,288 613.713,288 616.025,290.09 	"/>
	<path opacity="0.3" fill="#FFFFFF" d="M644.803,339.988c-0.043-0.049-0.09-0.083-0.135-0.124l-0.303-1.046l2.191,7.551l1.443-1.056
		v-3.431C646.879,341.822,645.794,341.104,644.803,339.988z"/>
	<path opacity="0.3" fill="#FFFFFF" d="M644.668,339.864c0.045,0.041,0.092,0.075,0.135,0.124c0.991,1.116,2.076,1.834,3.197,1.895
		v-3.339l-3.635,0.274L644.668,339.864z"/>
	<path opacity="0.3" fill="#FFFFFF" d="M644.668,339.864c0.045,0.041,0.092,0.075,0.135,0.124c0.991,1.116,2.076,1.834,3.197,1.895
		v-3.339l-3.635,0.274L644.668,339.864z"/>
	<polygon opacity="0.2" fill="#FFFFFF" points="646.324,330.098 648,329.948 648,325.529 645.506,325.787 	"/>
	<path opacity="0.3" fill="#FFFFFF" d="M577.805,301.8l0.331,2.778c-0.718,0.533-1.434,0.734-2.136,0.686v3.472l2.421-1.771
		L577.805,301.8z"/>
	<path opacity="0.3" fill="#FFFFFF" d="M578.136,304.578l-0.331-2.778L576,301.937v3.328
		C576.702,305.312,577.417,305.111,578.136,304.578z"/>
	<path opacity="0.3" fill="#FFFFFF" d="M578.136,304.578l-0.331-2.778L576,301.937v3.328
		C576.702,305.312,577.417,305.111,578.136,304.578z"/>
	<path opacity="0.3" fill="#FFFFFF" d="M606.055,322.858c-0.043-0.049-0.089-0.083-0.134-0.124l-0.304-1.046l2.192,7.551
		l3.818-2.793l-0.617-5.165l0.332,2.778C609.493,325.431,607.653,324.658,606.055,322.858z"/>
	<path opacity="0.3" fill="#FFFFFF" d="M605.92,322.734c0.045,0.041,0.091,0.075,0.134,0.124c1.599,1.8,3.438,2.572,5.287,1.201
		l-0.332-2.778l-5.394,0.407L605.92,322.734z"/>
	<path opacity="0.3" fill="#FFFFFF" d="M605.92,322.734c0.045,0.041,0.091,0.075,0.134,0.124c1.599,1.8,3.438,2.572,5.287,1.201
		l-0.332-2.778l-5.394,0.407L605.92,322.734z"/>
	<path opacity="0.3" fill="#FFFFFF" d="M644.849,303.377c-0.043-0.049-0.089-0.083-0.134-0.124l-0.305-1.046l2.193,7.551
		l1.396-1.022v-3.472C646.895,305.188,645.826,304.479,644.849,303.377z"/>
	<path opacity="0.3" fill="#FFFFFF" d="M644.715,303.253c0.045,0.041,0.091,0.075,0.134,0.124c0.978,1.101,2.046,1.81,3.151,1.887
		v-3.328l-3.59,0.271L644.715,303.253z"/>
	<path opacity="0.3" fill="#FFFFFF" d="M644.715,303.253c0.045,0.041,0.091,0.075,0.134,0.124c0.978,1.101,2.046,1.81,3.151,1.887
		v-3.328l-3.59,0.271L644.715,303.253z"/>
	<path opacity="0.3" fill="#FFFFFF" d="M608.563,344.201l-1.631,0.285l1.018,2.142l-2.142-1.018l-0.023,0.188l0.848,2.922
		l3.818-2.793l-0.24-2.014l-1.29,0.225C608.802,344.169,608.682,344.188,608.563,344.201z"/>
	<polygon opacity="0.3" fill="#FFFFFF" points="610.157,343.461 609.834,340.762 607.876,340.91 606.932,342.897 	"/>
	<polygon opacity="0.3" fill="#FFFFFF" points="610.157,343.461 609.834,340.762 607.876,340.91 606.932,342.897 	"/>
	<polygon opacity="0.3" fill="#FFFFFF" points="607.578,340.933 605.722,341.072 605.808,341.773 	"/>
	<polygon opacity="0.3" fill="#FFFFFF" points="607.578,340.933 605.722,341.072 605.808,341.773 	"/>
	<polygon opacity="0.3" fill="#FFFFFF" points="631.107,288.66 631.029,288 626.287,288 627.29,291.453 	"/>
	<path opacity="0.3" fill="#FFFFFF" d="M587.443,335.684l-0.617-5.166l0.332,2.778c-1.849,1.372-3.688,0.599-5.287-1.2
		c-0.043-0.049-0.089-0.084-0.134-0.125l-0.304-1.045l2.192,7.551L587.443,335.684z"/>
	<path opacity="0.3" fill="#FFFFFF" d="M581.871,332.096c1.599,1.799,3.438,2.572,5.287,1.2l-0.332-2.778l-5.394,0.408l0.304,1.045
		C581.782,332.012,581.828,332.047,581.871,332.096z"/>
	<path opacity="0.3" fill="#FFFFFF" d="M581.871,332.096c1.599,1.799,3.438,2.572,5.287,1.2l-0.332-2.778l-5.394,0.408l0.304,1.045
		C581.782,332.012,581.828,332.047,581.871,332.096z"/>
	<path opacity="0.3" fill="#FFFFFF" d="M644.711,325.103l-0.617-5.165l0.332,2.778c-1.85,1.372-3.688,0.599-5.287-1.201
		c-0.043-0.049-0.09-0.083-0.135-0.124l-0.303-1.046l2.191,7.551L644.711,325.103z"/>
	<path opacity="0.3" fill="#FFFFFF" d="M639.139,321.515c1.599,1.8,3.438,2.572,5.287,1.201l-0.332-2.778l-5.393,0.407l0.303,1.046
		C639.049,321.432,639.096,321.466,639.139,321.515z"/>
	<path opacity="0.3" fill="#FFFFFF" d="M639.139,321.515c1.599,1.8,3.438,2.572,5.287,1.201l-0.332-2.778l-5.393,0.407l0.303,1.046
		C639.049,321.432,639.096,321.466,639.139,321.515z"/>
	<path opacity="0.3" fill="#FFFFFF" d="M637.877,347.57c-1.85,1.372-3.689,0.6-5.287-1.2c-0.043-0.049-0.09-0.083-0.135-0.124
		l-0.304-1.046l2.192,7.551l3.818-2.793l-0.617-5.165L637.877,347.57z"/>
	<path opacity="0.3" fill="#FFFFFF" d="M632.59,346.37c1.598,1.8,3.438,2.572,5.287,1.2l-0.332-2.777l-5.394,0.407l0.304,1.046
		C632.5,346.287,632.547,346.321,632.59,346.37z"/>
	<path opacity="0.3" fill="#FFFFFF" d="M632.59,346.37c1.598,1.8,3.438,2.572,5.287,1.2l-0.332-2.777l-5.394,0.407l0.304,1.046
		C632.5,346.287,632.547,346.321,632.59,346.37z"/>
	<path opacity="0.3" fill="#FFFFFF" d="M577.758,338.411l0.332,2.778c-0.702,0.521-1.403,0.729-2.09,0.693v3.431l2.375-1.737
		L577.758,338.411z"/>
	<path opacity="0.3" fill="#FFFFFF" d="M578.09,341.189l-0.332-2.778L576,338.544v3.339
		C576.687,341.918,577.388,341.71,578.09,341.189z"/>
	<path opacity="0.3" fill="#FFFFFF" d="M578.09,341.189l-0.332-2.778L576,338.544v3.339
		C576.687,341.918,577.388,341.71,578.09,341.189z"/>
	<path opacity="0.3" fill="#FFFFFF" d="M600.328,325.209l-6.35,0.627l4.5-0.443c-0.159,1.895-1.838,2.78-3.394,3.668l0.776,2.264
		l5.239-1.518L600.328,325.209z"/>
	<polygon opacity="0.3" fill="#FFFFFF" points="595.083,329.061 595.084,329.061 593.979,325.836 	"/>
	<path opacity="0.3" fill="#FFFFFF" d="M598.478,325.393l-4.5,0.443l1.105,3.225C596.64,328.173,598.319,327.287,598.478,325.393z"
		/>
	<path opacity="0.3" fill="#FFFFFF" d="M598.478,325.393l-4.5,0.443l1.105,3.225C596.64,328.173,598.319,327.287,598.478,325.393z"
		/>
	<path opacity="0.3" fill="#FFFFFF" d="M600.882,343.284l1.855-1.14l-0.66-1.389l0.844,0.4l-1.476-4.402l0.752,2.244
		c-0.276,0.273-0.651,0.406-1.176,0.6c-1.127,0.412-2.049,0.965-2.94,1.77c-0.342,0.309-0.638,0.646-0.886,1.005l1.386,2.325
		l1.267-0.778l-1.301-0.228L600.882,343.284z"/>
	<path opacity="0.3" fill="#FFFFFF" d="M601.021,339.598c0.525-0.193,0.9-0.326,1.176-0.6l-0.752-2.244l-5.899,2.85l1.649,2.769
		c0.248-0.358,0.544-0.696,0.886-1.005C598.973,340.562,599.895,340.01,601.021,339.598z"/>
	<path opacity="0.3" fill="#FFFFFF" d="M601.021,339.598c0.525-0.193,0.9-0.326,1.176-0.6l-0.752-2.244l-5.899,2.85l1.649,2.769
		c0.248-0.358,0.544-0.696,0.886-1.005C598.973,340.562,599.895,340.01,601.021,339.598z"/>
	<path opacity="0.3" fill="#FFFFFF" d="M585.482,317.442l0.752,2.244c-0.276,0.273-0.651,0.407-1.176,0.6
		c-1.127,0.413-2.049,0.965-2.94,1.77c-0.342,0.309-0.638,0.646-0.886,1.005l1.386,2.325l4.583-2.815L585.482,317.442z"/>
	<path opacity="0.3" fill="#FFFFFF" d="M585.058,320.286c0.525-0.193,0.9-0.326,1.176-0.6l-0.752-2.244l-5.899,2.85l1.649,2.769
		c0.248-0.358,0.544-0.696,0.886-1.005C583.009,321.251,583.931,320.699,585.058,320.286z"/>
	<path opacity="0.3" fill="#FFFFFF" d="M585.058,320.286c0.525-0.193,0.9-0.326,1.176-0.6l-0.752-2.244l-5.899,2.85l1.649,2.769
		c0.248-0.358,0.544-0.696,0.886-1.005C583.009,321.251,583.931,320.699,585.058,320.286z"/>
	<path opacity="0.3" fill="#FFFFFF" d="M625.121,320.661c-0.167,0.706-0.148,1.42-0.932,1.614c-0.775,0.192-1.554,0.337-2.305,0.618
		c-0.504,0.188-0.957,0.449-1.331,0.764l-0.47-2.474l0.818,4.311l4.391-0.392l0.862-4.548l-6.071,0.629L625.121,320.661z"/>
	<path opacity="0.3" fill="#FFFFFF" d="M621.885,322.893c0.751-0.28,1.529-0.426,2.305-0.618c0.783-0.193,0.765-0.908,0.932-1.614
		l-5.037,0.521l0.47,2.474C620.928,323.342,621.381,323.081,621.885,322.893z"/>
	<path opacity="0.3" fill="#FFFFFF" d="M621.885,322.893c0.751-0.28,1.529-0.426,2.305-0.618c0.783-0.193,0.765-0.908,0.932-1.614
		l-5.037,0.521l0.47,2.474C620.928,323.342,621.381,323.081,621.885,322.893z"/>
	<path opacity="0.3" fill="#FFFFFF" d="M638.633,310.183c-0.775,0.192-1.555,0.337-2.305,0.618
		c-0.505,0.188-0.957,0.449-1.332,0.764l0.35,1.837l4.391-0.392l0.861-4.547l-6.071,0.629l5.038-0.521
		C639.396,309.275,639.416,309.99,638.633,310.183z"/>
	<path opacity="0.3" fill="#FFFFFF" d="M634.663,309.81l0.333,1.755c0.375-0.314,0.827-0.575,1.332-0.764
		c0.75-0.28,1.529-0.426,2.305-0.618c0.783-0.193,0.764-0.908,0.932-1.614l-5.038,0.521l0.004,0.021l2.066,0.361L634.663,309.81z"/>
	<path opacity="0.3" fill="#FFFFFF" d="M634.663,309.81l0.333,1.755c0.375-0.314,0.827-0.575,1.332-0.764
		c0.75-0.28,1.529-0.426,2.305-0.618c0.783-0.193,0.764-0.908,0.932-1.614l-5.038,0.521l0.004,0.021l2.066,0.361L634.663,309.81z"/>
	<polygon opacity="0.3" fill="#FFFFFF" points="634.996,311.564 634.996,311.564 634.663,309.81 	"/>
	<polygon opacity="0.3" fill="#FFFFFF" points="634.996,311.564 634.996,311.564 634.663,309.81 	"/>
	<polygon opacity="0.3" fill="#FFFFFF" points="634.996,311.564 634.996,311.564 634.663,309.81 	"/>
	<path opacity="0.3" fill="#FFFFFF" d="M615.503,334.165l-0.091,0.878c-0.361,0.387-0.746,0.686-1.336,0.883
		c-0.818,0.274-1.622,0.58-2.385,0.985c-0.582,0.309-1.107,0.743-1.499,1.251l0.54-4.059l-0.682,5.13l4.915,0.153L615.503,334.165z"
		/>
	<path opacity="0.3" fill="#FFFFFF" d="M611.691,336.911c0.763-0.405,1.567-0.711,2.385-0.985c0.59-0.197,0.975-0.496,1.336-0.883
		l0.091-0.878l-4.771-0.062l-0.54,4.059C610.583,337.654,611.109,337.22,611.691,336.911z"/>
	<path opacity="0.3" fill="#FFFFFF" d="M611.691,336.911c0.763-0.405,1.567-0.711,2.385-0.985c0.59-0.197,0.975-0.496,1.336-0.883
		l0.091-0.878l-4.771-0.062l-0.54,4.059C610.583,337.654,611.109,337.22,611.691,336.911z"/>
	<path opacity="0.3" fill="#FFFFFF" d="M591.991,339.539l-0.091,0.878c-0.361,0.387-0.746,0.685-1.336,0.884
		c-0.818,0.273-1.622,0.578-2.385,0.984c-0.582,0.309-1.107,0.744-1.499,1.25l0.54-4.058l-0.682,5.13l4.916,0.154L591.991,339.539z"
		/>
	<path opacity="0.3" fill="#FFFFFF" d="M588.179,342.285c0.763-0.406,1.567-0.711,2.385-0.984c0.591-0.199,0.975-0.497,1.336-0.884
		l0.091-0.878l-4.771-0.062l-0.54,4.058C587.072,343.029,587.598,342.594,588.179,342.285z"/>
	<path opacity="0.3" fill="#FFFFFF" d="M588.179,342.285c0.763-0.406,1.567-0.711,2.385-0.984c0.591-0.199,0.975-0.497,1.336-0.884
		l0.091-0.878l-4.771-0.062l-0.54,4.058C587.072,343.029,587.598,342.594,588.179,342.285z"/>
	<path opacity="0.3" fill="#FFFFFF" d="M609.625,300.745l-0.091,0.878c-0.361,0.387-0.746,0.685-1.336,0.883
		c-0.818,0.274-1.622,0.579-2.385,0.985c-0.582,0.309-1.107,0.744-1.499,1.25l0.54-4.058l-0.682,5.13l4.916,0.154L609.625,300.745z"
		/>
	<path opacity="0.3" fill="#FFFFFF" d="M605.813,303.491c0.763-0.406,1.567-0.711,2.385-0.985c0.591-0.198,0.975-0.497,1.336-0.883
		l0.091-0.878l-4.771-0.062l-0.54,4.058C604.706,304.234,605.231,303.799,605.813,303.491z"/>
	<path opacity="0.3" fill="#FFFFFF" d="M605.813,303.491c0.763-0.406,1.567-0.711,2.385-0.985c0.591-0.198,0.975-0.497,1.336-0.883
		l0.091-0.878l-4.771-0.062l-0.54,4.058C604.706,304.234,605.231,303.799,605.813,303.491z"/>
	<path opacity="0.3" fill="#FFFFFF" d="M586.848,307.718c-0.818,0.274-1.622,0.579-2.385,0.985c-0.582,0.309-1.107,0.744-1.499,1.25
		l0.54-4.058l-0.682,5.13l4.916,0.154l0.538-5.222l-0.091,0.878C587.823,307.222,587.438,307.52,586.848,307.718z"/>
	<path opacity="0.3" fill="#FFFFFF" d="M582.964,309.954c0.391-0.507,0.917-0.942,1.499-1.25c0.763-0.406,1.567-0.711,2.385-0.985
		c0.591-0.198,0.975-0.497,1.336-0.883l0.091-0.878l-4.771-0.062L582.964,309.954z"/>
	<path opacity="0.3" fill="#FFFFFF" d="M582.964,309.954c0.391-0.507,0.917-0.942,1.499-1.25c0.763-0.406,1.567-0.711,2.385-0.985
		c0.591-0.198,0.975-0.497,1.336-0.883l0.091-0.878l-4.771-0.062L582.964,309.954z"/>
	<path opacity="0.3" fill="#FFFFFF" d="M591.906,299.847l0.388-3.157c-0.288,0.256-0.615,0.461-1.058,0.61
		c-0.818,0.274-1.622,0.579-2.385,0.985c-0.582,0.309-1.107,0.744-1.499,1.25l0.54-4.058l-0.682,5.13l3.45,0.108l-0.896-1.885
		L591.906,299.847z"/>
	<path opacity="0.3" fill="#FFFFFF" d="M588.851,298.285c0.763-0.406,1.567-0.711,2.385-0.985c0.443-0.148,0.77-0.354,1.058-0.61
		l0.142-1.154l-4.544-0.059l-0.54,4.058C587.744,299.028,588.27,298.593,588.851,298.285z"/>
	<path opacity="0.3" fill="#FFFFFF" d="M588.851,298.285c0.763-0.406,1.567-0.711,2.385-0.985c0.443-0.148,0.77-0.354,1.058-0.61
		l0.142-1.154l-4.544-0.059l-0.54,4.058C587.744,299.028,588.27,298.593,588.851,298.285z"/>
	<path opacity="0.3" fill="#FFFFFF" d="M616.175,291.34l-0.091,0.878c-0.361,0.387-0.746,0.685-1.336,0.883
		c-0.818,0.274-1.622,0.579-2.385,0.985c-0.582,0.309-1.107,0.744-1.499,1.25l0.54-4.058l-0.682,5.13l4.915,0.154L616.175,291.34z"
		/>
	<path opacity="0.3" fill="#FFFFFF" d="M612.363,294.086c0.763-0.406,1.567-0.711,2.385-0.985c0.59-0.198,0.975-0.497,1.336-0.883
		l0.091-0.878l-4.771-0.062l-0.54,4.058C611.255,294.83,611.781,294.395,612.363,294.086z"/>
	<path opacity="0.3" fill="#FFFFFF" d="M612.363,294.086c0.763-0.406,1.567-0.711,2.385-0.985c0.59-0.198,0.975-0.497,1.336-0.883
		l0.091-0.878l-4.771-0.062l-0.54,4.058C611.255,294.83,611.781,294.395,612.363,294.086z"/>
	<path opacity="0.3" fill="#FFFFFF" d="M609.877,355.239c-0.818,0.274-1.622,0.579-2.385,0.985c-0.582,0.309-1.107,0.743-1.499,1.25
		l0.54-4.059l-0.682,5.131l4.916,0.153l0.538-5.222l-0.091,0.877C610.853,354.742,610.468,355.041,609.877,355.239z"/>
	<path opacity="0.3" fill="#FFFFFF" d="M605.994,357.475c0.391-0.507,0.917-0.941,1.499-1.25c0.763-0.406,1.567-0.711,2.385-0.985
		c0.591-0.198,0.975-0.497,1.336-0.884l0.091-0.877l-4.771-0.062L605.994,357.475z"/>
	<path opacity="0.3" fill="#FFFFFF" d="M605.994,357.475c0.391-0.507,0.917-0.941,1.499-1.25c0.763-0.406,1.567-0.711,2.385-0.985
		c0.591-0.198,0.975-0.497,1.336-0.884l0.091-0.877l-4.771-0.062L605.994,357.475z"/>
	<path opacity="0.3" fill="#FFFFFF" d="M623.941,332.124c-0.988,0.362-1.614,0.916-2.246,1.739c-0.27,0.354-0.496,0.75-0.672,1.169
		l1.812,2.644l4.59-2.862l-2.348-3.481C624.907,331.94,624.689,331.849,623.941,332.124z"/>
	<path opacity="0.3" fill="#FFFFFF" d="M623.941,332.124c0.748-0.275,0.966-0.184,1.137-0.792l-1.529-2.269l-3.654,4.321
		l1.129,1.647c0.176-0.419,0.402-0.815,0.672-1.169C622.327,333.04,622.953,332.486,623.941,332.124z"/>
	<path opacity="0.3" fill="#FFFFFF" d="M623.941,332.124c0.748-0.275,0.966-0.184,1.137-0.792l-1.529-2.269l-3.654,4.321
		l1.129,1.647c0.176-0.419,0.402-0.815,0.672-1.169C622.327,333.04,622.953,332.486,623.941,332.124z"/>
	<path opacity="0.3" fill="#FFFFFF" d="M633.85,337.162c-0.988,0.362-1.613,0.916-2.245,1.739c-0.271,0.353-0.497,0.75-0.673,1.169
		l1.812,2.643l4.59-2.861l-2.348-3.482C634.816,336.979,634.599,336.887,633.85,337.162z"/>
	<path opacity="0.3" fill="#FFFFFF" d="M633.85,337.162c0.749-0.275,0.967-0.184,1.137-0.793l-1.529-2.268l-3.654,4.322l1.129,1.646
		c0.176-0.419,0.402-0.816,0.673-1.169C632.236,338.078,632.861,337.524,633.85,337.162z"/>
	<path opacity="0.3" fill="#FFFFFF" d="M633.85,337.162c0.749-0.275,0.967-0.184,1.137-0.793l-1.529-2.268l-3.654,4.322l1.129,1.646
		c0.176-0.419,0.402-0.816,0.673-1.169C632.236,338.078,632.861,337.524,633.85,337.162z"/>
	<path opacity="0.3" fill="#FFFFFF" d="M585.314,349.926c-0.988,0.362-1.614,0.916-2.245,1.739c-0.27,0.353-0.497,0.75-0.672,1.169
		l1.812,2.643l4.59-2.861l-2.348-3.482C586.281,349.742,586.063,349.65,585.314,349.926z"/>
	<path opacity="0.3" fill="#FFFFFF" d="M583.069,351.665c0.631-0.823,1.257-1.377,2.245-1.739c0.749-0.275,0.966-0.184,1.137-0.793
		l-1.529-2.268l-3.655,4.322l1.129,1.646C582.573,352.415,582.799,352.018,583.069,351.665z"/>
	<path opacity="0.3" fill="#FFFFFF" d="M583.069,351.665c0.631-0.823,1.257-1.377,2.245-1.739c0.749-0.275,0.966-0.184,1.137-0.793
		l-1.529-2.268l-3.655,4.322l1.129,1.646C582.573,352.415,582.799,352.018,583.069,351.665z"/>
	<path opacity="0.3" fill="#FFFFFF" d="M598.594,352.437c-0.988,0.362-1.614,0.916-2.245,1.739c-0.27,0.354-0.497,0.75-0.672,1.169
		l1.812,2.644l4.59-2.862l-2.348-3.481C599.561,352.253,599.343,352.161,598.594,352.437z"/>
	<path opacity="0.3" fill="#FFFFFF" d="M598.594,352.437c0.749-0.275,0.966-0.184,1.137-0.792l-1.529-2.269l-3.655,4.321
		l1.129,1.647c0.176-0.419,0.402-0.815,0.672-1.169C596.98,353.353,597.606,352.799,598.594,352.437z"/>
	<path opacity="0.3" fill="#FFFFFF" d="M598.594,352.437c0.749-0.275,0.966-0.184,1.137-0.792l-1.529-2.269l-3.655,4.321
		l1.129,1.647c0.176-0.419,0.402-0.815,0.672-1.169C596.98,353.353,597.606,352.799,598.594,352.437z"/>
	<path opacity="0.3" fill="#FFFFFF" d="M642.918,294.505c-0.988,0.362-1.613,0.916-2.245,1.739c-0.271,0.353-0.497,0.75-0.673,1.169
		l1.812,2.643l4.59-2.862l-2.348-3.482C643.885,294.322,643.667,294.23,642.918,294.505z"/>
	<path opacity="0.3" fill="#FFFFFF" d="M640.673,296.245c0.632-0.823,1.257-1.377,2.245-1.739c0.749-0.275,0.967-0.184,1.137-0.792
		l-1.529-2.268l-3.654,4.322l1.129,1.647C640.176,296.995,640.402,296.598,640.673,296.245z"/>
	<path opacity="0.3" fill="#FFFFFF" d="M640.673,296.245c0.632-0.823,1.257-1.377,2.245-1.739c0.749-0.275,0.967-0.184,1.137-0.792
		l-1.529-2.268l-3.654,4.322l1.129,1.647C640.176,296.995,640.402,296.598,640.673,296.245z"/>
	<path opacity="0.3" fill="#FFFFFF" d="M589.908,315.377l0.995-3.042l-2.028,6.201l4.776,2.035l2.084-5.805l-0.951-0.479
		C593.836,315.45,591.694,315.449,589.908,315.377z"/>
	<path opacity="0.3" fill="#FFFFFF" d="M594.784,314.288l-3.881-1.952l-0.995,3.042C591.694,315.449,593.836,315.45,594.784,314.288
		z"/>
	<path opacity="0.3" fill="#FFFFFF" d="M594.784,314.288l-3.881-1.952l-0.995,3.042C591.694,315.449,593.836,315.45,594.784,314.288
		z"/>
	<path opacity="0.3" fill="#FFFFFF" d="M616.611,350.309l0.994-3.041l-2.028,6.201l4.776,2.034l2.084-5.806l-0.951-0.479
		C620.539,350.381,618.396,350.381,616.611,350.309z"/>
	<path opacity="0.3" fill="#FFFFFF" d="M621.486,349.219l-3.881-1.951l-0.994,3.041
		C618.396,350.381,620.539,350.381,621.486,349.219z"/>
	<path opacity="0.3" fill="#FFFFFF" d="M621.486,349.219l-3.881-1.951l-0.994,3.041
		C618.396,350.381,620.539,350.381,621.486,349.219z"/>
	<path opacity="0.3" fill="#FFFFFF" d="M641.299,353.164l0.994-3.042l-2.028,6.201l4.776,2.034l2.084-5.805l-0.951-0.479
		C645.227,353.236,643.084,353.235,641.299,353.164z"/>
	<path opacity="0.3" fill="#FFFFFF" d="M641.299,353.164c1.785,0.071,3.928,0.072,4.875-1.09l-3.881-1.952L641.299,353.164z"/>
	<path opacity="0.3" fill="#FFFFFF" d="M641.299,353.164c1.785,0.071,3.928,0.072,4.875-1.09l-3.881-1.952L641.299,353.164z"/>
	<path opacity="0.3" fill="#FFFFFF" d="M631.564,305.104l0.041,0.017l2.084-5.805l-0.951-0.479c-0.947,1.162-3.09,1.161-4.876,1.089
		l0.995-3.042l-2.029,6.201l4.139,1.763l0.283-2.307L631.564,305.104z"/>
	<path opacity="0.3" fill="#FFFFFF" d="M632.738,298.837l-3.881-1.952l-0.995,3.042C629.648,299.999,631.791,300,632.738,298.837z"
		/>
	<path opacity="0.3" fill="#FFFFFF" d="M632.738,298.837l-3.881-1.952l-0.995,3.042C629.648,299.999,631.791,300,632.738,298.837z"
		/>
	<path opacity="0.3" fill="#FFFFFF" d="M605.114,317.004l2.002-5.341l-0.685-0.28c-1.564,2.032-3.917,1.795-6.176,2.155
		l-0.202,0.794L605.114,317.004z"/>
	<polygon opacity="0.3" fill="#FFFFFF" points="600.256,313.538 600.256,313.538 601.332,309.3 	"/>
	<path opacity="0.3" fill="#FFFFFF" d="M606.432,311.383l-5.1-2.083l-1.076,4.238C602.515,313.178,604.868,313.415,606.432,311.383z
		"/>
	<path opacity="0.3" fill="#FFFFFF" d="M606.432,311.383l-5.1-2.083l-1.076,4.238C602.515,313.178,604.868,313.415,606.432,311.383z
		"/>
	<path opacity="0.3" fill="#FFFFFF" d="M635.008,332.622l2.002-5.341l-0.684-0.279c-1.564,2.031-3.918,1.795-6.176,2.154
		l-0.202,0.794L635.008,332.622z"/>
	<polygon opacity="0.3" fill="#FFFFFF" points="630.149,329.156 630.15,329.156 631.226,324.918 	"/>
	<path opacity="0.3" fill="#FFFFFF" d="M636.326,327.002l-5.101-2.084l-1.075,4.238
		C632.408,328.797,634.762,329.033,636.326,327.002z"/>
	<path opacity="0.3" fill="#FFFFFF" d="M636.326,327.002l-5.101-2.084l-1.075,4.238
		C632.408,328.797,634.762,329.033,636.326,327.002z"/>
	<path opacity="0.3" fill="#FFFFFF" d="M593.875,291.034l-0.202,0.794l5.06,2.672l2.002-5.341l-0.685-0.28
		C598.486,290.911,596.133,290.674,593.875,291.034z"/>
	<polygon opacity="0.3" fill="#FFFFFF" points="593.875,291.034 594.645,288 593.874,291.034 	"/>
	<path opacity="0.3" fill="#FFFFFF" d="M600.05,288.879L597.897,288h-3.253l-0.77,3.034
		C596.133,290.674,598.486,290.911,600.05,288.879z"/>
	<path opacity="0.3" fill="#FFFFFF" d="M600.05,288.879L597.897,288h-3.253l-0.77,3.034
		C596.133,290.674,598.486,290.911,600.05,288.879z"/>
	<path opacity="0.3" fill="#FFFFFF" d="M615.963,309.356l-0.635,2.989l3.191,0.489l-0.091-1.996l2.267,0.026l1.082-4.016
		l-0.38,1.407C619.627,309.101,617.846,309.36,615.963,309.356z"/>
	<path opacity="0.3" fill="#FFFFFF" d="M615.963,309.356c1.883,0.004,3.664-0.256,5.435-1.101l0.38-1.407l-5.014-1.261
		L615.963,309.356z"/>
	<path opacity="0.3" fill="#FFFFFF" d="M615.963,309.356c1.883,0.004,3.664-0.256,5.435-1.101l0.38-1.407l-5.014-1.261
		L615.963,309.356z"/>
	<rect x="629.552" y="310.111" opacity="0.3" fill="#FFFFFF" width="0.001" height="0.358"/>
	<path opacity="0.3" fill="#FFFFFF" d="M628.848,312.904l0.314-1.166l-0.34,0.161l0.604-1.27c-1.759,0.831-3.526,1.089-5.396,1.085
		l-0.634,2.989l4.357,0.668l-0.225-2.42L628.848,312.904z"/>
	<path opacity="0.3" fill="#FFFFFF" d="M629.427,310.629l0.079-0.166l0.093-0.346l-3.695-0.645l2.948-0.515l-4.021-1.011l-0.8,3.769
		C625.9,311.719,627.668,311.46,629.427,310.629z"/>
	<path opacity="0.3" fill="#FFFFFF" d="M629.427,310.629l0.079-0.166l0.093-0.346l-3.695-0.645l2.948-0.515l-4.021-1.011l-0.8,3.769
		C625.9,311.719,627.668,311.46,629.427,310.629z"/>
	<path opacity="0.3" fill="#FFFFFF" d="M581.031,290.043l-0.634,2.989l4.771,0.731L586.72,288l-0.254,0.943
		C584.695,289.788,582.914,290.047,581.031,290.043z"/>
	<path opacity="0.3" fill="#FFFFFF" d="M586.466,288.943L586.72,288h-5.255l-0.434,2.043
		C582.914,290.047,584.695,289.788,586.466,288.943z"/>
	<path opacity="0.3" fill="#FFFFFF" d="M586.466,288.943L586.72,288h-5.255l-0.434,2.043
		C582.914,290.047,584.695,289.788,586.466,288.943z"/>
	<polygon opacity="0.08" points="612.712,319.149 617.814,321.364 619.012,317.71 615.203,315.533 	"/>
	<polygon opacity="0.08" points="624.461,291.695 620.652,289.518 618.162,293.134 623.264,295.348 	"/>
	<polygon opacity="0.08" points="619.018,343.102 616.284,339.666 612.68,343.9 615.825,346.11 	"/>
	<polygon opacity="0.2" points="626.074,328.024 628.725,329.022 629.949,326.466 626.471,325.575 	"/>
	<polygon opacity="0.08" points="603.734,332.672 599.447,331.954 599.227,334.951 602.526,335.885 	"/>
	<polygon opacity="0.08" points="643.65,316.603 647.082,316.572 646.206,312.315 643.332,313.189 	"/>
	<polygon opacity="0.08" points="577.123,346.017 576.902,349.014 580.201,349.947 581.41,346.734 	"/>
	<polygon opacity="0.08" points="587.782,327.857 591.158,328.479 591.105,324.132 588.118,324.446 	"/>
	<polygon opacity="0.08" points="617.432,327.042 614.825,328.537 615.945,332.797 619.126,331.766 	"/>
	<polygon opacity="0.08" points="637.641,306.192 640.967,302.435 638.404,300.869 635.207,303.898 	"/>
	<polygon opacity="0.08" points="641.027,332.434 642.635,335.365 646.958,332.816 645.002,330.537 	"/>
	<polygon opacity="0.08" points="625.563,350.996 628.021,353.265 631.31,349.474 628.729,347.935 	"/>
	<polygon opacity="0.8" fill="#FFFFFF" points="643.086,341.727 640.56,340.334 639.517,342.149 642.535,343.5 	"/>
	<polygon opacity="0.8" fill="#FFFFFF" points="623.607,303.772 621.839,302.652 620.361,305.61 622.107,306.236 	"/>
	<polygon opacity="0.8" fill="#FFFFFF" points="610.046,318.257 611.966,317.113 610.722,313.994 608.311,314.806 	"/>
	<polygon opacity="0.08" points="609.241,309.278 613.42,312.056 614.617,309.301 611.177,306.551 	"/>
	<polygon opacity="0.08" points="593.204,306.684 593.155,306.453 593.123,306.71 	"/>
	<polygon opacity="0.08" points="589.764,304.702 590.512,303.129 588.903,303.457 590.023,307.716 592.311,306.974 
		591.906,303.684 	"/>
	<polygon opacity="0.08" points="584.499,300.84 584.736,297.317 580.333,297.268 580.484,300.608 	"/>
	<polygon opacity="0.2" fill="#FFFFFF" points="596.606,302.213 596.28,303.75 601.05,304.481 602.728,298.254 597.714,296.993 
		596.789,301.351 599.167,301.766 	"/>
	<polygon opacity="0.2" fill="#FFFFFF" points="627.865,340.442 622.852,339.182 621.417,345.939 626.188,346.67 	"/>
	<polygon opacity="0.2" fill="#FFFFFF" points="582.032,312.065 576.788,313.529 577.837,317.912 582.788,316.868 	"/>
	<polygon opacity="0.8" fill="#FFFFFF" points="595.94,321.72 600.148,322.365 601.627,316.873 597.207,315.762 	"/>
	<polygon opacity="0.8" fill="#FFFFFF" points="630.812,312.835 628.848,312.904 628.166,315.435 627.754,315.372 627.924,317.189 
		633.611,317.294 633.617,312.735 631.692,312.804 631.25,316.402 	"/>
	<polygon opacity="0.3" fill="#FFFFFF" points="628.848,312.904 627.529,312.951 627.754,315.372 628.166,315.435 	"/>
	<polygon opacity="0.8" fill="#FFFFFF" points="628.848,312.904 627.529,312.951 627.754,315.372 628.166,315.435 	"/>
	<polygon opacity="0.8" fill="#FFFFFF" points="636.159,294.35 635.052,292.257 632.312,293.839 633.525,295.688 	"/>
	<polygon opacity="0.3" fill="#FFFFFF" points="617.121,302.824 613.998,297.619 610.384,299.559 613.031,304.533 	"/>
	<polygon opacity="0.2" points="595.189,310.058 598.094,310.598 598.487,308.263 595.35,307.852 	"/>
	<polygon opacity="0.2" points="608.405,293.109 607.35,290.126 605.31,290.983 606.146,293.817 	"/>
	<polygon opacity="0.2" fill="#FFFFFF" points="622.86,301.583 623.723,297.036 617.65,297.665 618.471,301.975 	"/>
	<polygon opacity="0.2" fill="#FFFFFF" points="639.033,290.685 639.542,288 634.058,288 634.643,291.077 	"/>
	<polygon opacity="0.2" fill="#FFFFFF" points="594.919,345.938 589.93,347.311 591.706,351.896 596.724,350.354 	"/>
	<polygon opacity="0.2" fill="#FFFFFF" points="630.764,318.612 632.854,323.568 638.184,322.642 636.257,316.38 	"/>
	<polygon opacity="0.8" fill="#FFFFFF" points="590.438,334.372 592.804,335.102 593.577,332.872 591.056,332.182 	"/>
	<polygon opacity="0.8" fill="#FFFFFF" points="614.039,329.9 611.691,328.027 609.058,330.225 611.028,333.035 	"/>
	<polygon opacity="0.8" fill="#FFFFFF" points="610.119,348.801 612.342,351.584 614.122,350.402 612.441,347.854 	"/>
	<polygon opacity="0.8" fill="#FFFFFF" points="616.215,355.322 612.376,358.793 613.713,360 618.203,360 619.813,358.455 	"/>
	<polygon opacity="0.2" fill="#FFFFFF" points="579.577,325.158 576,325.529 576,329.948 578.715,329.705 	"/>
	<polygon opacity="0.08" points="618.52,312.834 618.58,314.179 622.595,314.411 622.832,310.888 620.695,310.864 620.1,313.076 	
		"/>
	<polygon opacity="0.3" fill="#FFFFFF" points="618.52,312.834 620.1,313.076 620.695,310.864 618.429,310.838 	"/>
	<polygon opacity="0.08" points="618.52,312.834 620.1,313.076 620.695,310.864 618.429,310.838 	"/>
	<polygon opacity="0.3" fill="#FFFFFF" points="603.089,346.146 602.078,346.628 602.318,346.121 599.943,348.992 602.307,352.932 
		604.761,350.012 604.431,347.33 	"/>
	<polygon opacity="0.3" fill="#FFFFFF" points="605.483,348.258 605.354,349.306 605.915,348.639 	"/>
	<polygon fill="#FFFFFF" points="592.701,310.148 593.123,306.71 592.311,306.974 	"/>
	<polygon fill="#FFFFFF" points="590.512,303.129 592.363,302.752 593.155,306.453 593.495,303.684 595.636,304.702 594.618,302.56 
		596.606,302.213 596.789,301.351 594.618,300.971 595.636,298.83 593.495,299.847 592.701,293.383 592.436,295.536 
		592.663,295.539 592.125,300.761 590.66,300.715 590.782,300.971 586.233,301.766 590.782,302.56 	"/>
	<path fill="#FFFFFF" d="M592.663,295.539l-0.091,0.878c-0.09,0.097-0.182,0.188-0.278,0.273l-0.388,3.157l-2.142-1.018l0.896,1.885
		l1.465,0.046L592.663,295.539z"/>
	<path fill="#FFFFFF" d="M592.572,296.417l0.091-0.878l-0.227-0.003l-0.142,1.154C592.39,296.604,592.482,296.513,592.572,296.417z"
		/>
	<polygon fill="#FFFFFF" points="590.512,303.129 589.764,304.702 591.906,303.684 592.311,306.974 593.123,306.71 593.155,306.453 
		592.363,302.752 	"/>
	<polygon fill="#FFFFFF" points="599.167,301.766 596.789,301.351 596.606,302.213 	"/>
	<polygon fill="#FFFFFF" points="629.6,310.117 629.664,310.129 629.506,310.462 629.47,310.595 629.465,310.614 629.465,310.614 
		629.162,311.738 630.594,311.058 630.812,312.835 631.692,312.804 631.906,311.058 633.678,311.899 632.836,310.129 
		634.663,309.81 634.53,309.111 632.836,308.815 633.678,307.045 631.906,307.886 631.564,305.104 630.967,304.849 630.594,307.886 
		628.822,307.045 629.664,308.815 628.852,308.958 629.844,309.207 	"/>
	<polygon fill="#FFFFFF" points="636.597,309.472 634.53,309.111 634.663,309.81 	"/>
	<polygon fill="#FFFFFF" points="631.25,302.542 630.967,304.849 631.564,305.104 	"/>
	<path fill="#FFFFFF" d="M629.162,311.738l0.303-1.124c-0.013,0.006-0.025,0.009-0.038,0.015l-0.604,1.27L629.162,311.738z"/>
	<polygon fill="#FFFFFF" points="629.506,310.462 629.506,310.463 629.47,310.595 	"/>
	<polygon fill="#FFFFFF" points="629.844,309.207 629.599,310.117 629.6,310.117 	"/>
	<polygon fill="#FFFFFF" points="629.599,310.117 629.844,309.207 628.852,308.958 625.903,309.472 	"/>
	<path fill="#FFFFFF" d="M629.465,310.614l0.005-0.019l0.036-0.132l-0.079,0.166C629.439,310.624,629.452,310.62,629.465,310.614
		L629.465,310.614z"/>
	<polygon fill="#FFFFFF" points="631.25,316.402 631.692,312.804 630.812,312.835 	"/>
	<polygon fill="#FFFFFF" points="611.481,343.691 610.157,343.461 610.211,343.914 	"/>
	<polygon fill="#FFFFFF" points="603.089,346.146 604.219,345.61 604.431,347.33 605.483,348.258 605.785,345.799 604.745,342.215 
		604.745,342.215 604.441,341.17 605.722,341.072 605.014,335.309 604.219,341.773 602.921,341.156 603.165,341.882 
		602.737,342.145 603.096,342.897 600.882,343.284 599.848,343.919 603.096,344.486 602.318,346.121 602.631,345.743 	"/>
	<polygon fill="#FFFFFF" points="605.014,352.074 605.354,349.306 604.761,350.012 	"/>
	<polygon fill="#FFFFFF" points="607.95,340.756 607.578,340.933 607.876,340.91 	"/>
	<path fill="#FFFFFF" d="M608.921,344.139l1.29-0.225l-0.054-0.453l0.009,0.079C609.75,343.849,609.334,344.035,608.921,344.139z"/>
	<path fill="#FFFFFF" d="M607.95,346.628l-1.018-2.142l1.631-0.285c-1.294,0.156-2.55-0.585-3.684-1.861
		c-0.043-0.049-0.089-0.084-0.134-0.125l1.041,3.584l0.023-0.188L607.95,346.628z"/>
	<path fill="#FFFFFF" d="M604.745,342.215L604.745,342.215c0.045,0.041,0.091,0.076,0.134,0.125c1.134,1.276,2.39,2.018,3.684,1.861
		c0.119-0.014,0.239-0.032,0.358-0.062c0.413-0.104,0.828-0.29,1.245-0.599l-0.009-0.079l-3.225-0.563l0.945-1.987l-0.299,0.022
		l-1.77,0.841l-0.086-0.701l-1.281,0.098L604.745,342.215z"/>
	<polygon fill="#FFFFFF" points="598.546,343.691 599.848,343.919 600.882,343.284 	"/>
	<polygon fill="#FFFFFF" points="602.737,342.145 603.165,341.882 602.921,341.156 602.078,340.756 	"/>
	<polygon fill="#FFFFFF" points="604.431,347.33 604.761,350.012 605.354,349.306 605.483,348.258 	"/>
	<polygon fill="#FFFFFF" points="603.089,346.146 602.631,345.743 602.318,346.121 602.078,346.628 	"/>
</g>
</svg>
