<?xml version="1.0" encoding="utf-8"?>
<!-- Generator: Adobe Illustrator 15.0.0, SVG Export Plug-In . SVG Version: 6.00 Build 0)  -->
<!DOCTYPE svg PUBLIC "-//W3C//DTD SVG 1.1//EN" "http://www.w3.org/Graphics/SVG/1.1/DTD/svg11.dtd">
<svg version="1.1" id="Layer_1" xmlns="http://www.w3.org/2000/svg" xmlns:xlink="http://www.w3.org/1999/xlink" x="0px" y="0px"
	 width="72px" height="72px" viewBox="0 0 72 72" enable-background="new 0 0 72 72" xml:space="preserve">
<g>
	<path opacity="0.3" fill="#FFFFFF" d="M54.822,70.272c-1.849,1.372-3.688,0.599-5.287-1.2c-0.043-0.049-0.089-0.084-0.134-0.125
		l-0.304-1.045L50.287,72h4.742l-0.538-4.506L54.822,70.272z"/>
	<path opacity="0.3" fill="#FFFFFF" d="M49.535,69.072c1.6,1.799,3.438,2.572,5.287,1.2l-0.331-2.778l-5.394,0.408l0.304,1.045
		C49.446,68.988,49.492,69.023,49.535,69.072z"/>
	<path opacity="0.3" fill="#FFFFFF" d="M49.535,69.072c1.6,1.799,3.438,2.572,5.287,1.2l-0.331-2.778l-5.394,0.408l0.304,1.045
		C49.446,68.988,49.492,69.023,49.535,69.072z"/>
	<polygon opacity="0.3" fill="#FFFFFF" points="18.645,72 21.897,72 18.95,70.796 	"/>
	<polygon opacity="0.3" fill="#FFFFFF" points="18.645,72 21.897,72 18.95,70.796 	"/>
	<polygon opacity="0.3" fill="#FFFFFF" points="5.832,70.275 5.465,72 10.72,72 10.845,71.535 	"/>
	<polygon opacity="0.3" fill="#FFFFFF" points="5.832,70.275 5.465,72 10.72,72 10.845,71.535 	"/>
	<polygon opacity="0.2" fill="#FFFFFF" points="57.823,70.766 58.058,72 63.542,72 63.895,70.137 	"/>
	<polygon opacity="0.8" fill="#FFFFFF" points="42.203,0 37.713,0 40.025,2.09 	"/>
	<path opacity="0.3" fill="#FFFFFF" d="M68.803,51.988c-0.043-0.049-0.09-0.083-0.135-0.124l-0.303-1.046l2.191,7.551L72,57.313
		v-3.431C70.879,53.822,69.794,53.104,68.803,51.988z"/>
	<path opacity="0.3" fill="#FFFFFF" d="M68.668,51.864c0.045,0.041,0.092,0.075,0.135,0.124c0.991,1.116,2.076,1.834,3.197,1.895
		v-3.339l-3.635,0.274L68.668,51.864z"/>
	<path opacity="0.3" fill="#FFFFFF" d="M68.668,51.864c0.045,0.041,0.092,0.075,0.135,0.124c0.991,1.116,2.076,1.834,3.197,1.895
		v-3.339l-3.635,0.274L68.668,51.864z"/>
	<polygon opacity="0.2" fill="#FFFFFF" points="70.324,42.098 72,41.948 72,37.529 69.506,37.787 	"/>
	<path opacity="0.3" fill="#FFFFFF" d="M1.805,13.8l0.331,2.778C1.417,17.111,0.702,17.312,0,17.264v3.472l2.421-1.771L1.805,13.8z"
		/>
	<path opacity="0.3" fill="#FFFFFF" d="M2.136,16.578L1.805,13.8L0,13.937v3.328C0.702,17.312,1.417,17.111,2.136,16.578z"/>
	<path opacity="0.3" fill="#FFFFFF" d="M2.136,16.578L1.805,13.8L0,13.937v3.328C0.702,17.312,1.417,17.111,2.136,16.578z"/>
	<path opacity="0.3" fill="#FFFFFF" d="M30.055,34.858c-0.043-0.049-0.089-0.083-0.134-0.124l-0.304-1.046l2.192,7.551l3.818-2.793
		l-0.617-5.165l0.332,2.778C33.493,37.431,31.653,36.658,30.055,34.858z"/>
	<path opacity="0.3" fill="#FFFFFF" d="M29.92,34.734c0.045,0.041,0.091,0.075,0.134,0.124c1.599,1.8,3.438,2.572,5.287,1.201
		l-0.332-2.778l-5.394,0.407L29.92,34.734z"/>
	<path opacity="0.3" fill="#FFFFFF" d="M29.92,34.734c0.045,0.041,0.091,0.075,0.134,0.124c1.599,1.8,3.438,2.572,5.287,1.201
		l-0.332-2.778l-5.394,0.407L29.92,34.734z"/>
	<path opacity="0.3" fill="#FFFFFF" d="M68.849,15.377c-0.043-0.049-0.089-0.083-0.134-0.124l-0.305-1.046l2.193,7.551L72,20.736
		v-3.472C70.895,17.188,69.826,16.479,68.849,15.377z"/>
	<path opacity="0.3" fill="#FFFFFF" d="M68.715,15.253c0.045,0.041,0.091,0.075,0.134,0.124c0.978,1.101,2.046,1.81,3.151,1.887
		v-3.328l-3.59,0.271L68.715,15.253z"/>
	<path opacity="0.3" fill="#FFFFFF" d="M68.715,15.253c0.045,0.041,0.091,0.075,0.134,0.124c0.978,1.101,2.046,1.81,3.151,1.887
		v-3.328l-3.59,0.271L68.715,15.253z"/>
	<path opacity="0.3" fill="#FFFFFF" d="M32.563,56.201l-1.631,0.285l1.018,2.142l-2.142-1.018l-0.023,0.188l0.848,2.922l3.818-2.793
		l-0.24-2.014l-1.29,0.225C32.802,56.169,32.682,56.188,32.563,56.201z"/>
	<polygon opacity="0.3" fill="#FFFFFF" points="34.157,55.461 33.834,52.762 31.876,52.91 30.932,54.897 	"/>
	<polygon opacity="0.3" fill="#FFFFFF" points="34.157,55.461 33.834,52.762 31.876,52.91 30.932,54.897 	"/>
	<polygon opacity="0.3" fill="#FFFFFF" points="31.578,52.933 29.722,53.072 29.808,53.773 	"/>
	<polygon opacity="0.3" fill="#FFFFFF" points="31.578,52.933 29.722,53.072 29.808,53.773 	"/>
	<polygon opacity="0.3" fill="#FFFFFF" points="55.107,0.66 55.029,0 50.287,0 51.29,3.453 	"/>
	<path opacity="0.3" fill="#FFFFFF" d="M11.443,47.684l-0.617-5.166l0.332,2.778c-1.849,1.372-3.688,0.599-5.287-1.2
		c-0.043-0.049-0.089-0.084-0.134-0.125l-0.304-1.045l2.192,7.551L11.443,47.684z"/>
	<path opacity="0.3" fill="#FFFFFF" d="M5.871,44.096c1.599,1.799,3.438,2.572,5.287,1.2l-0.332-2.778l-5.394,0.408l0.304,1.045
		C5.782,44.012,5.828,44.047,5.871,44.096z"/>
	<path opacity="0.3" fill="#FFFFFF" d="M5.871,44.096c1.599,1.799,3.438,2.572,5.287,1.2l-0.332-2.778l-5.394,0.408l0.304,1.045
		C5.782,44.012,5.828,44.047,5.871,44.096z"/>
	<path opacity="0.3" fill="#FFFFFF" d="M68.711,37.103l-0.617-5.165l0.332,2.778c-1.85,1.372-3.688,0.599-5.287-1.201
		c-0.043-0.049-0.09-0.083-0.135-0.124l-0.303-1.046l2.191,7.551L68.711,37.103z"/>
	<path opacity="0.3" fill="#FFFFFF" d="M63.139,33.515c1.599,1.8,3.438,2.572,5.287,1.201l-0.332-2.778l-5.393,0.407l0.303,1.046
		C63.049,33.432,63.096,33.466,63.139,33.515z"/>
	<path opacity="0.3" fill="#FFFFFF" d="M63.139,33.515c1.599,1.8,3.438,2.572,5.287,1.201l-0.332-2.778l-5.393,0.407l0.303,1.046
		C63.049,33.432,63.096,33.466,63.139,33.515z"/>
	<path opacity="0.3" fill="#FFFFFF" d="M61.877,59.57c-1.85,1.372-3.689,0.6-5.287-1.2c-0.043-0.049-0.09-0.083-0.135-0.124
		L56.151,57.2l2.192,7.551l3.818-2.793l-0.617-5.165L61.877,59.57z"/>
	<path opacity="0.3" fill="#FFFFFF" d="M56.59,58.37c1.598,1.8,3.438,2.572,5.287,1.2l-0.332-2.777L56.151,57.2l0.304,1.046
		C56.5,58.287,56.547,58.321,56.59,58.37z"/>
	<path opacity="0.3" fill="#FFFFFF" d="M56.59,58.37c1.598,1.8,3.438,2.572,5.287,1.2l-0.332-2.777L56.151,57.2l0.304,1.046
		C56.5,58.287,56.547,58.321,56.59,58.37z"/>
	<path opacity="0.3" fill="#FFFFFF" d="M1.758,50.411l0.332,2.778C1.388,53.71,0.687,53.918,0,53.883v3.431l2.375-1.737
		L1.758,50.411z"/>
	<path opacity="0.3" fill="#FFFFFF" d="M2.09,53.189l-0.332-2.778L0,50.544v3.339C0.687,53.918,1.388,53.71,2.09,53.189z"/>
	<path opacity="0.3" fill="#FFFFFF" d="M2.09,53.189l-0.332-2.778L0,50.544v3.339C0.687,53.918,1.388,53.71,2.09,53.189z"/>
	<path opacity="0.3" fill="#FFFFFF" d="M24.328,37.209l-6.35,0.627l4.5-0.443c-0.159,1.895-1.838,2.78-3.394,3.668l0.776,2.264
		l5.239-1.518L24.328,37.209z"/>
	<polygon opacity="0.3" fill="#FFFFFF" points="19.083,41.061 19.084,41.061 17.979,37.836 	"/>
	<path opacity="0.3" fill="#FFFFFF" d="M22.478,37.393l-4.5,0.443l1.105,3.225C20.64,40.173,22.319,39.287,22.478,37.393z"/>
	<path opacity="0.3" fill="#FFFFFF" d="M22.478,37.393l-4.5,0.443l1.105,3.225C20.64,40.173,22.319,39.287,22.478,37.393z"/>
	<path opacity="0.3" fill="#FFFFFF" d="M24.882,55.284l1.855-1.14l-0.66-1.389l0.844,0.4l-1.476-4.402l0.752,2.244
		c-0.276,0.273-0.651,0.406-1.176,0.6c-1.127,0.412-2.049,0.965-2.94,1.77c-0.342,0.309-0.638,0.646-0.886,1.005l1.386,2.325
		l1.267-0.778l-1.301-0.228L24.882,55.284z"/>
	<path opacity="0.3" fill="#FFFFFF" d="M25.021,51.598c0.525-0.193,0.9-0.326,1.176-0.6l-0.752-2.244l-5.899,2.85l1.649,2.769
		c0.248-0.358,0.544-0.696,0.886-1.005C22.973,52.562,23.895,52.01,25.021,51.598z"/>
	<path opacity="0.3" fill="#FFFFFF" d="M25.021,51.598c0.525-0.193,0.9-0.326,1.176-0.6l-0.752-2.244l-5.899,2.85l1.649,2.769
		c0.248-0.358,0.544-0.696,0.886-1.005C22.973,52.562,23.895,52.01,25.021,51.598z"/>
	<path opacity="0.3" fill="#FFFFFF" d="M9.482,29.442l0.752,2.244c-0.276,0.273-0.651,0.407-1.176,0.6
		c-1.127,0.413-2.049,0.965-2.94,1.77c-0.342,0.309-0.638,0.646-0.886,1.005l1.386,2.325l4.583-2.815L9.482,29.442z"/>
	<path opacity="0.3" fill="#FFFFFF" d="M9.058,32.286c0.525-0.193,0.9-0.326,1.176-0.6l-0.752-2.244l-5.899,2.85l1.649,2.769
		c0.248-0.358,0.544-0.696,0.886-1.005C7.009,33.251,7.931,32.699,9.058,32.286z"/>
	<path opacity="0.3" fill="#FFFFFF" d="M9.058,32.286c0.525-0.193,0.9-0.326,1.176-0.6l-0.752-2.244l-5.899,2.85l1.649,2.769
		c0.248-0.358,0.544-0.696,0.886-1.005C7.009,33.251,7.931,32.699,9.058,32.286z"/>
	<path opacity="0.3" fill="#FFFFFF" d="M49.121,32.661c-0.167,0.706-0.148,1.42-0.932,1.614c-0.775,0.192-1.554,0.337-2.305,0.618
		c-0.504,0.188-0.957,0.449-1.331,0.764l-0.47-2.474l0.818,4.311l4.391-0.392l0.862-4.548l-6.071,0.629L49.121,32.661z"/>
	<path opacity="0.3" fill="#FFFFFF" d="M45.885,34.893c0.751-0.28,1.529-0.426,2.305-0.618c0.783-0.193,0.765-0.908,0.932-1.614
		l-5.037,0.521l0.47,2.474C44.928,35.342,45.381,35.081,45.885,34.893z"/>
	<path opacity="0.3" fill="#FFFFFF" d="M45.885,34.893c0.751-0.28,1.529-0.426,2.305-0.618c0.783-0.193,0.765-0.908,0.932-1.614
		l-5.037,0.521l0.47,2.474C44.928,35.342,45.381,35.081,45.885,34.893z"/>
	<path opacity="0.3" fill="#FFFFFF" d="M62.633,22.183c-0.775,0.192-1.555,0.337-2.305,0.618c-0.505,0.188-0.957,0.449-1.332,0.764
		l0.35,1.837l4.391-0.392l0.861-4.547l-6.071,0.629l5.038-0.521C63.396,21.275,63.416,21.99,62.633,22.183z"/>
	<path opacity="0.3" fill="#FFFFFF" d="M58.663,21.81l0.333,1.755c0.375-0.314,0.827-0.575,1.332-0.764
		c0.75-0.28,1.529-0.426,2.305-0.618c0.783-0.193,0.764-0.908,0.932-1.614l-5.038,0.521l0.004,0.021l2.066,0.361L58.663,21.81z"/>
	<path opacity="0.3" fill="#FFFFFF" d="M58.663,21.81l0.333,1.755c0.375-0.314,0.827-0.575,1.332-0.764
		c0.75-0.28,1.529-0.426,2.305-0.618c0.783-0.193,0.764-0.908,0.932-1.614l-5.038,0.521l0.004,0.021l2.066,0.361L58.663,21.81z"/>
	<polygon opacity="0.3" fill="#FFFFFF" points="58.996,23.564 58.996,23.564 58.663,21.81 	"/>
	<polygon opacity="0.3" fill="#FFFFFF" points="58.996,23.564 58.996,23.564 58.663,21.81 	"/>
	<polygon opacity="0.3" fill="#FFFFFF" points="58.996,23.564 58.996,23.564 58.663,21.81 	"/>
	<path opacity="0.3" fill="#FFFFFF" d="M39.503,46.165l-0.091,0.878c-0.361,0.387-0.746,0.686-1.336,0.883
		c-0.818,0.274-1.622,0.58-2.385,0.985c-0.582,0.309-1.107,0.743-1.499,1.251l0.54-4.059l-0.682,5.13l4.915,0.153L39.503,46.165z"/>
	<path opacity="0.3" fill="#FFFFFF" d="M35.691,48.911c0.763-0.405,1.567-0.711,2.385-0.985c0.59-0.197,0.975-0.496,1.336-0.883
		l0.091-0.878l-4.771-0.062l-0.54,4.059C34.583,49.654,35.109,49.22,35.691,48.911z"/>
	<path opacity="0.3" fill="#FFFFFF" d="M35.691,48.911c0.763-0.405,1.567-0.711,2.385-0.985c0.59-0.197,0.975-0.496,1.336-0.883
		l0.091-0.878l-4.771-0.062l-0.54,4.059C34.583,49.654,35.109,49.22,35.691,48.911z"/>
	<path opacity="0.3" fill="#FFFFFF" d="M15.991,51.539L15.9,52.417c-0.361,0.387-0.746,0.685-1.336,0.884
		c-0.818,0.273-1.622,0.578-2.385,0.984c-0.582,0.309-1.107,0.744-1.499,1.25l0.54-4.058l-0.682,5.13l4.916,0.154L15.991,51.539z"/>
	<path opacity="0.3" fill="#FFFFFF" d="M12.179,54.285c0.763-0.406,1.567-0.711,2.385-0.984c0.591-0.199,0.975-0.497,1.336-0.884
		l0.091-0.878l-4.771-0.062l-0.54,4.058C11.072,55.029,11.598,54.594,12.179,54.285z"/>
	<path opacity="0.3" fill="#FFFFFF" d="M12.179,54.285c0.763-0.406,1.567-0.711,2.385-0.984c0.591-0.199,0.975-0.497,1.336-0.884
		l0.091-0.878l-4.771-0.062l-0.54,4.058C11.072,55.029,11.598,54.594,12.179,54.285z"/>
	<path opacity="0.3" fill="#FFFFFF" d="M33.625,12.745l-0.091,0.878c-0.361,0.387-0.746,0.685-1.336,0.883
		c-0.818,0.274-1.622,0.579-2.385,0.985c-0.582,0.309-1.107,0.744-1.499,1.25l0.54-4.058l-0.682,5.13l4.916,0.154L33.625,12.745z"/>
	<path opacity="0.3" fill="#FFFFFF" d="M29.813,15.491c0.763-0.406,1.567-0.711,2.385-0.985c0.591-0.198,0.975-0.497,1.336-0.883
		l0.091-0.878l-4.771-0.062l-0.54,4.058C28.706,16.234,29.231,15.799,29.813,15.491z"/>
	<path opacity="0.3" fill="#FFFFFF" d="M29.813,15.491c0.763-0.406,1.567-0.711,2.385-0.985c0.591-0.198,0.975-0.497,1.336-0.883
		l0.091-0.878l-4.771-0.062l-0.54,4.058C28.706,16.234,29.231,15.799,29.813,15.491z"/>
	<path opacity="0.3" fill="#FFFFFF" d="M10.848,19.718c-0.818,0.274-1.622,0.579-2.385,0.985c-0.582,0.309-1.107,0.744-1.499,1.25
		l0.54-4.058l-0.682,5.13l4.916,0.154l0.538-5.222l-0.091,0.878C11.823,19.222,11.438,19.52,10.848,19.718z"/>
	<path opacity="0.3" fill="#FFFFFF" d="M6.964,21.954c0.391-0.507,0.917-0.942,1.499-1.25c0.763-0.406,1.567-0.711,2.385-0.985
		c0.591-0.198,0.975-0.497,1.336-0.883l0.091-0.878l-4.771-0.062L6.964,21.954z"/>
	<path opacity="0.3" fill="#FFFFFF" d="M6.964,21.954c0.391-0.507,0.917-0.942,1.499-1.25c0.763-0.406,1.567-0.711,2.385-0.985
		c0.591-0.198,0.975-0.497,1.336-0.883l0.091-0.878l-4.771-0.062L6.964,21.954z"/>
	<path opacity="0.3" fill="#FFFFFF" d="M15.906,11.847l0.388-3.157c-0.288,0.256-0.615,0.461-1.058,0.61
		c-0.818,0.274-1.622,0.579-2.385,0.985c-0.582,0.309-1.107,0.744-1.499,1.25l0.54-4.058l-0.682,5.13l3.45,0.108l-0.896-1.885
		L15.906,11.847z"/>
	<path opacity="0.3" fill="#FFFFFF" d="M12.851,10.285c0.763-0.406,1.567-0.711,2.385-0.985c0.443-0.148,0.77-0.354,1.058-0.61
		l0.142-1.154l-4.544-0.059l-0.54,4.058C11.744,11.028,12.27,10.593,12.851,10.285z"/>
	<path opacity="0.3" fill="#FFFFFF" d="M12.851,10.285c0.763-0.406,1.567-0.711,2.385-0.985c0.443-0.148,0.77-0.354,1.058-0.61
		l0.142-1.154l-4.544-0.059l-0.54,4.058C11.744,11.028,12.27,10.593,12.851,10.285z"/>
	<path opacity="0.3" fill="#FFFFFF" d="M40.175,3.34l-0.091,0.878c-0.361,0.387-0.746,0.685-1.336,0.883
		c-0.818,0.274-1.622,0.579-2.385,0.985c-0.582,0.309-1.107,0.744-1.499,1.25l0.54-4.058l-0.682,5.13l4.915,0.154L40.175,3.34z"/>
	<path opacity="0.3" fill="#FFFFFF" d="M36.363,6.086c0.763-0.406,1.567-0.711,2.385-0.985c0.59-0.198,0.975-0.497,1.336-0.883
		l0.091-0.878l-4.771-0.062l-0.54,4.058C35.255,6.83,35.781,6.395,36.363,6.086z"/>
	<path opacity="0.3" fill="#FFFFFF" d="M36.363,6.086c0.763-0.406,1.567-0.711,2.385-0.985c0.59-0.198,0.975-0.497,1.336-0.883
		l0.091-0.878l-4.771-0.062l-0.54,4.058C35.255,6.83,35.781,6.395,36.363,6.086z"/>
	<path opacity="0.3" fill="#FFFFFF" d="M33.877,67.239c-0.818,0.274-1.622,0.579-2.385,0.985c-0.582,0.309-1.107,0.743-1.499,1.25
		l0.54-4.059l-0.682,5.131l4.916,0.153l0.538-5.222l-0.091,0.877C34.853,66.742,34.468,67.041,33.877,67.239z"/>
	<path opacity="0.3" fill="#FFFFFF" d="M29.994,69.475c0.391-0.507,0.917-0.941,1.499-1.25c0.763-0.406,1.567-0.711,2.385-0.985
		c0.591-0.198,0.975-0.497,1.336-0.884l0.091-0.877l-4.771-0.062L29.994,69.475z"/>
	<path opacity="0.3" fill="#FFFFFF" d="M29.994,69.475c0.391-0.507,0.917-0.941,1.499-1.25c0.763-0.406,1.567-0.711,2.385-0.985
		c0.591-0.198,0.975-0.497,1.336-0.884l0.091-0.877l-4.771-0.062L29.994,69.475z"/>
	<path opacity="0.3" fill="#FFFFFF" d="M47.941,44.124c-0.988,0.362-1.614,0.916-2.246,1.739c-0.27,0.354-0.496,0.75-0.672,1.169
		l1.812,2.644l4.59-2.862l-2.348-3.481C48.907,43.94,48.689,43.849,47.941,44.124z"/>
	<path opacity="0.3" fill="#FFFFFF" d="M47.941,44.124c0.748-0.275,0.966-0.184,1.137-0.792l-1.529-2.269l-3.654,4.321l1.129,1.647
		c0.176-0.419,0.402-0.815,0.672-1.169C46.327,45.04,46.953,44.486,47.941,44.124z"/>
	<path opacity="0.3" fill="#FFFFFF" d="M47.941,44.124c0.748-0.275,0.966-0.184,1.137-0.792l-1.529-2.269l-3.654,4.321l1.129,1.647
		c0.176-0.419,0.402-0.815,0.672-1.169C46.327,45.04,46.953,44.486,47.941,44.124z"/>
	<path opacity="0.3" fill="#FFFFFF" d="M57.85,49.162c-0.988,0.362-1.613,0.916-2.245,1.739c-0.271,0.353-0.497,0.75-0.673,1.169
		l1.812,2.643l4.59-2.861l-2.348-3.482C58.816,48.979,58.599,48.887,57.85,49.162z"/>
	<path opacity="0.3" fill="#FFFFFF" d="M57.85,49.162c0.749-0.275,0.967-0.184,1.137-0.793l-1.529-2.268l-3.654,4.322l1.129,1.646
		c0.176-0.419,0.402-0.816,0.673-1.169C56.236,50.078,56.861,49.524,57.85,49.162z"/>
	<path opacity="0.3" fill="#FFFFFF" d="M57.85,49.162c0.749-0.275,0.967-0.184,1.137-0.793l-1.529-2.268l-3.654,4.322l1.129,1.646
		c0.176-0.419,0.402-0.816,0.673-1.169C56.236,50.078,56.861,49.524,57.85,49.162z"/>
	<path opacity="0.3" fill="#FFFFFF" d="M9.314,61.926c-0.988,0.362-1.614,0.916-2.245,1.739c-0.27,0.353-0.497,0.75-0.672,1.169
		l1.812,2.643l4.59-2.861l-2.348-3.482C10.281,61.742,10.063,61.65,9.314,61.926z"/>
	<path opacity="0.3" fill="#FFFFFF" d="M7.069,63.665c0.631-0.823,1.257-1.377,2.245-1.739c0.749-0.275,0.966-0.184,1.137-0.793
		l-1.529-2.268l-3.655,4.322l1.129,1.646C6.573,64.415,6.799,64.018,7.069,63.665z"/>
	<path opacity="0.3" fill="#FFFFFF" d="M7.069,63.665c0.631-0.823,1.257-1.377,2.245-1.739c0.749-0.275,0.966-0.184,1.137-0.793
		l-1.529-2.268l-3.655,4.322l1.129,1.646C6.573,64.415,6.799,64.018,7.069,63.665z"/>
	<path opacity="0.3" fill="#FFFFFF" d="M22.594,64.437c-0.988,0.362-1.614,0.916-2.245,1.739c-0.27,0.354-0.497,0.75-0.672,1.169
		l1.812,2.644l4.59-2.862l-2.348-3.481C23.561,64.253,23.343,64.161,22.594,64.437z"/>
	<path opacity="0.3" fill="#FFFFFF" d="M22.594,64.437c0.749-0.275,0.966-0.184,1.137-0.792l-1.529-2.269l-3.655,4.321l1.129,1.647
		c0.176-0.419,0.402-0.815,0.672-1.169C20.98,65.353,21.606,64.799,22.594,64.437z"/>
	<path opacity="0.3" fill="#FFFFFF" d="M22.594,64.437c0.749-0.275,0.966-0.184,1.137-0.792l-1.529-2.269l-3.655,4.321l1.129,1.647
		c0.176-0.419,0.402-0.815,0.672-1.169C20.98,65.353,21.606,64.799,22.594,64.437z"/>
	<path opacity="0.3" fill="#FFFFFF" d="M66.918,6.505c-0.988,0.362-1.613,0.916-2.245,1.739C64.402,8.598,64.176,8.995,64,9.414
		l1.812,2.643l4.59-2.862l-2.348-3.482C67.885,6.322,67.667,6.23,66.918,6.505z"/>
	<path opacity="0.3" fill="#FFFFFF" d="M64.673,8.245c0.632-0.823,1.257-1.377,2.245-1.739c0.749-0.275,0.967-0.184,1.137-0.792
		l-1.529-2.268l-3.654,4.322L64,9.414C64.176,8.995,64.402,8.598,64.673,8.245z"/>
	<path opacity="0.3" fill="#FFFFFF" d="M64.673,8.245c0.632-0.823,1.257-1.377,2.245-1.739c0.749-0.275,0.967-0.184,1.137-0.792
		l-1.529-2.268l-3.654,4.322L64,9.414C64.176,8.995,64.402,8.598,64.673,8.245z"/>
	<path opacity="0.3" fill="#FFFFFF" d="M13.908,27.377l0.995-3.042l-2.028,6.201l4.776,2.035l2.084-5.805l-0.951-0.479
		C17.836,27.45,15.694,27.449,13.908,27.377z"/>
	<path opacity="0.3" fill="#FFFFFF" d="M18.784,26.288l-3.881-1.952l-0.995,3.042C15.694,27.449,17.836,27.45,18.784,26.288z"/>
	<path opacity="0.3" fill="#FFFFFF" d="M18.784,26.288l-3.881-1.952l-0.995,3.042C15.694,27.449,17.836,27.45,18.784,26.288z"/>
	<path opacity="0.3" fill="#FFFFFF" d="M40.611,62.309l0.994-3.041l-2.028,6.201l4.776,2.034l2.084-5.806l-0.951-0.479
		C44.539,62.381,42.396,62.381,40.611,62.309z"/>
	<path opacity="0.3" fill="#FFFFFF" d="M45.486,61.219l-3.881-1.951l-0.994,3.041C42.396,62.381,44.539,62.381,45.486,61.219z"/>
	<path opacity="0.3" fill="#FFFFFF" d="M45.486,61.219l-3.881-1.951l-0.994,3.041C42.396,62.381,44.539,62.381,45.486,61.219z"/>
	<path opacity="0.3" fill="#FFFFFF" d="M65.299,65.164l0.994-3.042l-2.028,6.201l4.776,2.034l2.084-5.805l-0.951-0.479
		C69.227,65.236,67.084,65.235,65.299,65.164z"/>
	<path opacity="0.3" fill="#FFFFFF" d="M65.299,65.164c1.785,0.071,3.928,0.072,4.875-1.09l-3.881-1.952L65.299,65.164z"/>
	<path opacity="0.3" fill="#FFFFFF" d="M65.299,65.164c1.785,0.071,3.928,0.072,4.875-1.09l-3.881-1.952L65.299,65.164z"/>
	<path opacity="0.3" fill="#FFFFFF" d="M55.564,17.104l0.041,0.017l2.084-5.805l-0.951-0.479c-0.947,1.162-3.09,1.161-4.876,1.089
		l0.995-3.042l-2.029,6.201l4.139,1.763l0.283-2.307L55.564,17.104z"/>
	<path opacity="0.3" fill="#FFFFFF" d="M56.738,10.837l-3.881-1.952l-0.995,3.042C53.648,11.999,55.791,12,56.738,10.837z"/>
	<path opacity="0.3" fill="#FFFFFF" d="M56.738,10.837l-3.881-1.952l-0.995,3.042C53.648,11.999,55.791,12,56.738,10.837z"/>
	<path opacity="0.3" fill="#FFFFFF" d="M29.114,29.004l2.002-5.341l-0.685-0.28c-1.564,2.032-3.917,1.795-6.176,2.155l-0.202,0.794
		L29.114,29.004z"/>
	<polygon opacity="0.3" fill="#FFFFFF" points="24.256,25.538 24.256,25.538 25.332,21.3 	"/>
	<path opacity="0.3" fill="#FFFFFF" d="M30.432,23.383l-5.1-2.083l-1.076,4.238C26.515,25.178,28.868,25.415,30.432,23.383z"/>
	<path opacity="0.3" fill="#FFFFFF" d="M30.432,23.383l-5.1-2.083l-1.076,4.238C26.515,25.178,28.868,25.415,30.432,23.383z"/>
	<path opacity="0.3" fill="#FFFFFF" d="M59.008,44.622l2.002-5.341l-0.684-0.279c-1.564,2.031-3.918,1.795-6.176,2.154l-0.202,0.794
		L59.008,44.622z"/>
	<polygon opacity="0.3" fill="#FFFFFF" points="54.149,41.156 54.15,41.156 55.226,36.918 	"/>
	<path opacity="0.3" fill="#FFFFFF" d="M60.326,39.002l-5.101-2.084l-1.075,4.238C56.408,40.797,58.762,41.033,60.326,39.002z"/>
	<path opacity="0.3" fill="#FFFFFF" d="M60.326,39.002l-5.101-2.084l-1.075,4.238C56.408,40.797,58.762,41.033,60.326,39.002z"/>
	<path opacity="0.3" fill="#FFFFFF" d="M17.875,3.034l-0.202,0.794l5.06,2.672l2.002-5.341l-0.685-0.28
		C22.486,2.911,20.133,2.674,17.875,3.034z"/>
	<polygon opacity="0.3" fill="#FFFFFF" points="17.875,3.034 18.645,0 17.874,3.034 	"/>
	<path opacity="0.3" fill="#FFFFFF" d="M24.05,0.879L21.897,0h-3.253l-0.77,3.034C20.133,2.674,22.486,2.911,24.05,0.879z"/>
	<path opacity="0.3" fill="#FFFFFF" d="M24.05,0.879L21.897,0h-3.253l-0.77,3.034C20.133,2.674,22.486,2.911,24.05,0.879z"/>
	<path opacity="0.3" fill="#FFFFFF" d="M39.963,21.356l-0.635,2.989l3.191,0.489l-0.091-1.996l2.267,0.026l1.082-4.016l-0.38,1.407
		C43.627,21.101,41.846,21.36,39.963,21.356z"/>
	<path opacity="0.3" fill="#FFFFFF" d="M39.963,21.356c1.883,0.004,3.664-0.256,5.435-1.101l0.38-1.407l-5.014-1.261L39.963,21.356z
		"/>
	<path opacity="0.3" fill="#FFFFFF" d="M39.963,21.356c1.883,0.004,3.664-0.256,5.435-1.101l0.38-1.407l-5.014-1.261L39.963,21.356z
		"/>
	<rect x="53.552" y="22.111" opacity="0.3" fill="#FFFFFF" width="0.001" height="0.358"/>
	<path opacity="0.3" fill="#FFFFFF" d="M52.848,24.904l0.314-1.166l-0.34,0.161l0.604-1.27c-1.759,0.831-3.526,1.089-5.396,1.085
		l-0.634,2.989l4.357,0.668l-0.225-2.42L52.848,24.904z"/>
	<path opacity="0.3" fill="#FFFFFF" d="M53.427,22.629l0.079-0.166l0.093-0.346l-3.695-0.645l2.948-0.515l-4.021-1.011l-0.8,3.769
		C49.9,23.719,51.668,23.46,53.427,22.629z"/>
	<path opacity="0.3" fill="#FFFFFF" d="M53.427,22.629l0.079-0.166l0.093-0.346l-3.695-0.645l2.948-0.515l-4.021-1.011l-0.8,3.769
		C49.9,23.719,51.668,23.46,53.427,22.629z"/>
	<path opacity="0.3" fill="#FFFFFF" d="M5.031,2.043L4.397,5.032l4.771,0.731L10.72,0l-0.254,0.943
		C8.695,1.788,6.914,2.047,5.031,2.043z"/>
	<path opacity="0.3" fill="#FFFFFF" d="M10.466,0.943L10.72,0H5.465L5.031,2.043C6.914,2.047,8.695,1.788,10.466,0.943z"/>
	<path opacity="0.3" fill="#FFFFFF" d="M10.466,0.943L10.72,0H5.465L5.031,2.043C6.914,2.047,8.695,1.788,10.466,0.943z"/>
	<polygon opacity="0.08" points="36.712,31.149 41.814,33.364 43.012,29.71 39.203,27.533 	"/>
	<polygon opacity="0.08" points="48.461,3.695 44.652,1.518 42.162,5.134 47.264,7.348 	"/>
	<polygon opacity="0.08" points="43.018,55.102 40.284,51.666 36.68,55.9 39.825,58.11 	"/>
	<polygon opacity="0.2" points="50.074,40.024 52.725,41.022 53.949,38.466 50.471,37.575 	"/>
	<polygon opacity="0.08" points="27.734,44.672 23.447,43.954 23.227,46.951 26.526,47.885 	"/>
	<polygon opacity="0.08" points="67.65,28.603 71.082,28.572 70.206,24.315 67.332,25.189 	"/>
	<polygon opacity="0.08" points="1.123,58.017 0.902,61.014 4.201,61.947 5.41,58.734 	"/>
	<polygon opacity="0.08" points="11.782,39.857 15.158,40.479 15.105,36.132 12.118,36.446 	"/>
	<polygon opacity="0.08" points="41.432,39.042 38.825,40.537 39.945,44.797 43.126,43.766 	"/>
	<polygon opacity="0.08" points="61.641,18.192 64.967,14.435 62.404,12.869 59.207,15.898 	"/>
	<polygon opacity="0.08" points="65.027,44.434 66.635,47.365 70.958,44.816 69.002,42.537 	"/>
	<polygon opacity="0.08" points="49.563,62.996 52.021,65.265 55.31,61.474 52.729,59.935 	"/>
	<polygon opacity="0.8" fill="#FFFFFF" points="67.086,53.727 64.56,52.334 63.517,54.149 66.535,55.5 	"/>
	<polygon opacity="0.8" fill="#FFFFFF" points="47.607,15.772 45.839,14.652 44.361,17.61 46.107,18.236 	"/>
	<polygon opacity="0.8" fill="#FFFFFF" points="34.046,30.257 35.966,29.113 34.722,25.994 32.311,26.806 	"/>
	<polygon opacity="0.08" points="33.241,21.278 37.42,24.056 38.617,21.301 35.177,18.551 	"/>
	<polygon opacity="0.08" points="17.204,18.684 17.155,18.453 17.123,18.71 	"/>
	<polygon opacity="0.08" points="13.764,16.702 14.512,15.129 12.903,15.457 14.023,19.716 16.311,18.974 15.906,15.684 	"/>
	<polygon opacity="0.08" points="8.499,12.84 8.736,9.317 4.333,9.268 4.484,12.608 	"/>
	<polygon opacity="0.2" fill="#FFFFFF" points="20.606,14.213 20.28,15.75 25.05,16.481 26.728,10.254 21.714,8.993 20.789,13.351 
		23.167,13.766 	"/>
	<polygon opacity="0.2" fill="#FFFFFF" points="51.865,52.442 46.852,51.182 45.417,57.939 50.188,58.67 	"/>
	<polygon opacity="0.2" fill="#FFFFFF" points="6.032,24.065 0.788,25.529 1.837,29.912 6.788,28.868 	"/>
	<polygon opacity="0.8" fill="#FFFFFF" points="19.94,33.72 24.148,34.365 25.627,28.873 21.207,27.762 	"/>
	<polygon opacity="0.8" fill="#FFFFFF" points="54.812,24.835 52.848,24.904 52.166,27.435 51.754,27.372 51.924,29.189 
		57.611,29.294 57.617,24.735 55.692,24.804 55.25,28.402 	"/>
	<polygon opacity="0.3" fill="#FFFFFF" points="52.848,24.904 51.529,24.951 51.754,27.372 52.166,27.435 	"/>
	<polygon opacity="0.8" fill="#FFFFFF" points="52.848,24.904 51.529,24.951 51.754,27.372 52.166,27.435 	"/>
	<polygon opacity="0.8" fill="#FFFFFF" points="60.159,6.35 59.052,4.257 56.312,5.839 57.525,7.688 	"/>
	<polygon opacity="0.3" fill="#FFFFFF" points="41.121,14.824 37.998,9.619 34.384,11.559 37.031,16.533 	"/>
	<polygon opacity="0.2" points="19.189,22.058 22.094,22.598 22.487,20.263 19.35,19.852 	"/>
	<polygon opacity="0.2" points="32.405,5.109 31.35,2.126 29.31,2.983 30.146,5.817 	"/>
	<polygon opacity="0.2" fill="#FFFFFF" points="46.86,13.583 47.723,9.036 41.65,9.665 42.471,13.975 	"/>
	<polygon opacity="0.2" fill="#FFFFFF" points="63.033,2.685 63.542,0 58.058,0 58.643,3.077 	"/>
	<polygon opacity="0.2" fill="#FFFFFF" points="18.919,57.938 13.93,59.311 15.706,63.896 20.724,62.354 	"/>
	<polygon opacity="0.2" fill="#FFFFFF" points="54.764,30.612 56.854,35.568 62.184,34.642 60.257,28.38 	"/>
	<polygon opacity="0.8" fill="#FFFFFF" points="14.438,46.372 16.804,47.102 17.577,44.872 15.056,44.182 	"/>
	<polygon opacity="0.8" fill="#FFFFFF" points="38.039,41.9 35.691,40.027 33.058,42.225 35.028,45.035 	"/>
	<polygon opacity="0.8" fill="#FFFFFF" points="34.119,60.801 36.342,63.584 38.122,62.402 36.441,59.854 	"/>
	<polygon opacity="0.8" fill="#FFFFFF" points="40.215,67.322 36.376,70.793 37.713,72 42.203,72 43.813,70.455 	"/>
	<polygon opacity="0.2" fill="#FFFFFF" points="3.577,37.158 0,37.529 0,41.948 2.715,41.705 	"/>
	<polygon opacity="0.08" points="42.52,24.834 42.58,26.179 46.595,26.411 46.832,22.888 44.695,22.864 44.1,25.076 	"/>
	<polygon opacity="0.3" fill="#FFFFFF" points="42.52,24.834 44.1,25.076 44.695,22.864 42.429,22.838 	"/>
	<polygon opacity="0.08" points="42.52,24.834 44.1,25.076 44.695,22.864 42.429,22.838 	"/>
	<polygon opacity="0.3" fill="#FFFFFF" points="27.089,58.146 26.078,58.628 26.318,58.121 23.943,60.992 26.307,64.932 
		28.761,62.012 28.431,59.33 	"/>
	<polygon opacity="0.3" fill="#FFFFFF" points="29.483,60.258 29.354,61.306 29.915,60.639 	"/>
	<polygon fill="#FFFFFF" points="16.701,22.148 17.123,18.71 16.311,18.974 	"/>
	<polygon fill="#FFFFFF" points="14.512,15.129 16.363,14.752 17.155,18.453 17.495,15.684 19.636,16.702 18.618,14.56 
		20.606,14.213 20.789,13.351 18.618,12.971 19.636,10.83 17.495,11.847 16.701,5.383 16.436,7.536 16.663,7.539 16.125,12.761 
		14.66,12.715 14.782,12.971 10.233,13.766 14.782,14.56 	"/>
	<path fill="#FFFFFF" d="M16.663,7.539l-0.091,0.878c-0.09,0.097-0.182,0.188-0.278,0.273l-0.388,3.157l-2.142-1.018l0.896,1.885
		l1.465,0.046L16.663,7.539z"/>
	<path fill="#FFFFFF" d="M16.572,8.417l0.091-0.878l-0.227-0.003L16.294,8.69C16.39,8.604,16.482,8.513,16.572,8.417z"/>
	<polygon fill="#FFFFFF" points="14.512,15.129 13.764,16.702 15.906,15.684 16.311,18.974 17.123,18.71 17.155,18.453 
		16.363,14.752 	"/>
	<polygon fill="#FFFFFF" points="23.167,13.766 20.789,13.351 20.606,14.213 	"/>
	<polygon fill="#FFFFFF" points="53.6,22.117 53.664,22.129 53.506,22.462 53.47,22.595 53.465,22.614 53.465,22.614 53.162,23.738 
		54.594,23.058 54.812,24.835 55.692,24.804 55.906,23.058 57.678,23.899 56.836,22.129 58.663,21.81 58.53,21.111 56.836,20.815 
		57.678,19.045 55.906,19.886 55.564,17.104 54.967,16.849 54.594,19.886 52.822,19.045 53.664,20.815 52.852,20.958 53.844,21.207 
			"/>
	<polygon fill="#FFFFFF" points="60.597,21.472 58.53,21.111 58.663,21.81 	"/>
	<polygon fill="#FFFFFF" points="55.25,14.542 54.967,16.849 55.564,17.104 	"/>
	<path fill="#FFFFFF" d="M53.162,23.738l0.303-1.124c-0.013,0.006-0.025,0.009-0.038,0.015l-0.604,1.27L53.162,23.738z"/>
	<polygon fill="#FFFFFF" points="53.506,22.462 53.506,22.463 53.47,22.595 	"/>
	<polygon fill="#FFFFFF" points="53.844,21.207 53.599,22.117 53.6,22.117 	"/>
	<polygon fill="#FFFFFF" points="53.599,22.117 53.844,21.207 52.852,20.958 49.903,21.472 	"/>
	<path fill="#FFFFFF" d="M53.465,22.614l0.005-0.019l0.036-0.132l-0.079,0.166C53.439,22.624,53.452,22.62,53.465,22.614
		L53.465,22.614z"/>
	<polygon fill="#FFFFFF" points="55.25,28.402 55.692,24.804 54.812,24.835 	"/>
	<polygon fill="#FFFFFF" points="35.481,55.691 34.157,55.461 34.211,55.914 	"/>
	<polygon fill="#FFFFFF" points="27.089,58.146 28.219,57.61 28.431,59.33 29.483,60.258 29.785,57.799 28.745,54.215 
		28.745,54.215 28.441,53.17 29.722,53.072 29.014,47.309 28.219,53.773 26.921,53.156 27.165,53.882 26.737,54.145 27.096,54.897 
		24.882,55.284 23.848,55.919 27.096,56.486 26.318,58.121 26.631,57.743 	"/>
	<polygon fill="#FFFFFF" points="29.014,64.074 29.354,61.306 28.761,62.012 	"/>
	<polygon fill="#FFFFFF" points="31.95,52.756 31.578,52.933 31.876,52.91 	"/>
	<path fill="#FFFFFF" d="M32.921,56.139l1.29-0.225l-0.054-0.453l0.009,0.079C33.75,55.849,33.334,56.035,32.921,56.139z"/>
	<path fill="#FFFFFF" d="M31.95,58.628l-1.018-2.142l1.631-0.285c-1.294,0.156-2.55-0.585-3.684-1.861
		c-0.043-0.049-0.089-0.084-0.134-0.125l1.041,3.584l0.023-0.188L31.95,58.628z"/>
	<path fill="#FFFFFF" d="M28.745,54.215L28.745,54.215c0.045,0.041,0.091,0.076,0.134,0.125c1.134,1.276,2.39,2.018,3.684,1.861
		c0.119-0.014,0.239-0.032,0.358-0.062c0.413-0.104,0.828-0.29,1.245-0.599l-0.009-0.079l-3.225-0.563l0.945-1.987l-0.299,0.022
		l-1.77,0.841l-0.086-0.701l-1.281,0.098L28.745,54.215z"/>
	<polygon fill="#FFFFFF" points="22.546,55.691 23.848,55.919 24.882,55.284 	"/>
	<polygon fill="#FFFFFF" points="26.737,54.145 27.165,53.882 26.921,53.156 26.078,52.756 	"/>
	<polygon fill="#FFFFFF" points="28.431,59.33 28.761,62.012 29.354,61.306 29.483,60.258 	"/>
	<polygon fill="#FFFFFF" points="27.089,58.146 26.631,57.743 26.318,58.121 26.078,58.628 	"/>
</g>
</svg>
