<?xml version="1.0" encoding="utf-8"?>
<!-- Generator: Adobe Illustrator 15.0.0, SVG Export Plug-In . SVG Version: 6.00 Build 0)  -->
<!DOCTYPE svg PUBLIC "-//W3C//DTD SVG 1.1//EN" "http://www.w3.org/Graphics/SVG/1.1/DTD/svg11.dtd">
<svg version="1.1" id="Layer_1" xmlns="http://www.w3.org/2000/svg" xmlns:xlink="http://www.w3.org/1999/xlink" x="0px" y="0px"
	 width="72px" height="72px" viewBox="0 0 72 72" enable-background="new 0 0 72 72" xml:space="preserve">
<g>
	<path fill="none" d="M68.697,46.189l-9.385,10.487l-11.041-9.385l3.037-6.349L68.697,46.189z M51.924,14.792l11.492-4.256
		l2.768,12.13L48.307,25.22L51.924,14.792z M44.277,29.5l5.662-1.02l0.681,9.402l-6.796-0.112L44.277,29.5z M46.744,54.006
		l0.916,7.768l-3.331,0.027l-1.611-5.316L46.744,54.006z M30.309,17.293L9.351,25.896l3.971-10.148l14.119-3.75L30.309,17.293z
		 M13.054,3.926l7.472,4.533l-12.005,8.06l-2.854-5.457L13.054,3.926z M19.951,66.297L4.488,58.32l5.038-8.326l13.224,3.849
		L19.951,66.297z M23.557,42.334l-2.962-6.118l7.585-3.323l3.463,4.596L23.557,42.334z"/>
	<polygon opacity="0.3" fill="#FFFFFF" enable-background="new    " points="44.662,68.904 32.318,71.455 32.39,72 46.113,72 	"/>
	<polygon opacity="0.3" fill="#FFFFFF" enable-background="new    " points="1.812,20.773 0,21.821 0,35.432 5.433,34.221 	"/>
	<polygon opacity="0.3" fill="#FFFFFF" enable-background="new    " points="49.939,28.48 44.277,29.5 43.824,37.77 50.62,37.883 	
		"/>
	<polygon opacity="0.3" fill="#FFFFFF" enable-background="new    " points="18.011,31.601 20.973,37.719 29.06,32.875 
		25.596,28.279 	"/>
	<polygon opacity="0.7" fill="#FFFFFF" enable-background="new    " points="17.572,9.16 13.071,6.429 8.62,10.729 10.34,14.016 	
		"/>
	<polygon opacity="0.7" fill="#FFFFFF" enable-background="new    " points="66.645,69.46 69.125,64.815 64.585,60.608 
		61.397,62.506 	"/>
	<polygon opacity="0.7" fill="#FFFFFF" enable-background="new    " points="36.149,31.044 40.787,26.407 35.497,20.859 
		30.559,22.322 	"/>
	<polygon opacity="0.7" fill="#FFFFFF" enable-background="new    " points="38.984,55.312 38.068,47.545 34.042,50.021 
		35.653,55.34 	"/>
	<polygon opacity="0.7" fill="#FFFFFF" enable-background="new    " points="8.983,41.681 13.5,39.131 10.849,37.476 8.032,39.784 	
		"/>
	<polygon opacity="0.7" fill="#FFFFFF" enable-background="new    " points="55.475,4.979 62.928,8.502 62.731,3.724 57.133,2.146 	
		"/>
	<polygon opacity="0.3" fill="#FFFFFF" enable-background="new    " points="66.119,36.742 72,35.432 72,21.821 65.537,25.557 	"/>
	<polygon opacity="0.3" fill="#FFFFFF" enable-background="new    " points="4.488,58.32 19.951,66.297 22.75,53.843 9.525,49.994 	
		"/>
	<polygon opacity="0.3" fill="#FFFFFF" enable-background="new    " points="25.817,55.967 24.075,67.059 32.423,66.083 
		32.061,57.234 	"/>
	<polygon opacity="0.3" fill="#FFFFFF" enable-background="new    " points="53.396,59.128 49.427,65.604 55.648,66.76 
		57.558,61.226 	"/>
	<polygon opacity="0.3" fill="#FFFFFF" enable-background="new    " points="3.983,1.532 0.616,8.008 5.895,9.164 7.515,3.63 	"/>
	<polygon opacity="0.3" fill="#FFFFFF" enable-background="new    " points="49.252,6.697 46.113,0 32.39,0 33.747,10.37 	"/>
	<polygon opacity="0.3" fill="#FFFFFF" enable-background="new    " points="7.643,49.562 9.792,45.45 5.64,39.427 1.253,44.255 	
		"/>
	<polygon opacity="0.3" fill="#FFFFFF" enable-background="new    " points="67.294,10.53 71.431,8.429 71.545,1.114 65.171,2.5 	
		"/>
	<polygon opacity="0.3" fill="#FFFFFF" enable-background="new    " points="48.271,47.293 59.312,56.678 68.697,46.189 
		51.309,40.943 	"/>
	<polygon opacity="0.3" fill="#FFFFFF" enable-background="new    " points="63.416,10.536 51.924,14.792 48.307,25.22 
		66.184,22.666 	"/>
	<polygon opacity="0.3" fill="#FFFFFF" enable-background="new    " points="12.098,64.967 5.646,62.889 1.403,65.537 10.451,70.25 
			"/>
	<polygon opacity="0.3" fill="#FFFFFF" enable-background="new    " points="33.094,44.725 26.749,40.08 19.208,41.963 
		26.598,50.686 	"/>
	<polygon opacity="0.3" fill="#FFFFFF" enable-background="new    " points="41.436,54.837 45.408,62.285 50.064,58.166 
		48.953,52.688 	"/>
	<polygon opacity="0.3" fill="#FFFFFF" enable-background="new    " points="9.351,25.896 30.309,17.293 27.44,11.998 
		13.321,15.749 	"/>
	<polygon opacity="0.3" fill="#FFFFFF" enable-background="new    " points="29.586,37.517 38.942,40.508 41.187,37.528 
		35.999,34.702 	"/>
</g>
</svg>
